<?xml version="1.0" encoding="utf-8"?>
<!-- Generator: Adobe Illustrator 24.3.0, SVG Export Plug-In . SVG Version: 6.00 Build 0)  -->
<svg version="1.1" id="Layer_1" xmlns="http://www.w3.org/2000/svg" xmlns:xlink="http://www.w3.org/1999/xlink" x="0px" y="0px"
	 viewBox="0 0 369.4 199.1" style="enable-background:new 0 0 369.4 199.1;" xml:space="preserve">
<style type="text/css">
	.st0{fill:#2B2B2B;}
	.st1{fill:url(#SVGID_1_);}
	.st2{fill:url(#SVGID_2_);}
	.st3{fill:url(#SVGID_3_);}
	.st4{fill:url(#SVGID_4_);}
	.st5{fill:url(#SVGID_5_);}
	.st6{fill:url(#SVGID_6_);}
	.st7{fill:url(#SVGID_7_);}
	.st8{fill:url(#SVGID_8_);}
	.st9{fill:url(#SVGID_9_);}
	.st10{fill:#FFFFFF;}
</style>
<path class="st0" d="M350.6,157.6V144l-3.2-4.6l-3.1-0.1l5.6-87.4l-27.3-7.2l-3.6,35l-17.2-12.6L293,85.5V45l-0.9,0.2V29.8v-8.6
	l-8.2,2.6c-1.3,0.4-32.5,10-54.2-15L221.9,0l-10.6,37.7l2.4,2.6c0.9,1,4.2,4,12.5,6.7l-9.4-1.4l-16.3,22.5l1-22.7l-33.7,4.8
	l-22.6,25.1l-4.2,0.4l9.2-23.1l-28.8-7.5l-2.2,6.5l-0.1-8.2l-21.7,7.5l-15.9-4v-1.7L76.8,46L74,45.3v1l-48.6,4.6l-2.6,37L10,84.3
	l4.3,55.3c-1.4,1.2-2.3,3-2.3,4.9v49.6l3.5,5l31.7-2.7c3.2-0.2,5.6-0.3,7.3-0.5l18.4,0.7h3.3c0.3,0,1.9,0,9.1,0.5l2,0.1l5.2-3.3
	l-0.2-5.1l5.3,0.1c0.2,2,0.2,2.6,0.2,2.8c0,3.3,2.5,6.1,5.8,6.4c0.6,0.1,1.2,0.2,2.2,0.3c1.6,0.1,3.9,0.3,7,0.4l1.6,0.1l15.5-4.8
	l0,0c0.9,0.5,1.8,0.9,2.9,1.1c0.6,0.1,1.3,0.2,2.3,0.3c1.7,0.2,4.1,0.4,7.5,0.6h0.5c3.6,0,6.5-2.8,6.6-6.4c0,0,0-0.1,0-0.1v-3.4
	l3,2.4l0.9-1v3.7c0,0.6,0.2,5.4,5.9,6.4c0.6,0.1,1.4,0.2,2.5,0.3c1.9,0.2,4.7,0.4,8.5,0.7h0.5c3.6,0.1,6.6-2.8,6.7-6.4
	c0,0,0-0.1,0-0.1l7.5,0.6l3.2,4.6l3.1,0.1c35.7,1.3,36.8,1.3,37.3,1.3h20.3c0.5,0,0.9,0,1.4-0.1c0.6,0,1.1,0,1.5-0.1
	c0.5,0,0.9-0.1,1.4-0.2c2.6-0.1,4.5-0.3,5.9-0.5c6.3-0.8,7.7-4.1,7.7-6.8v-1.1c3.5,4.4,4.3,4.9,5,5.4l1.8,1.3l2.2-0.2
	c1.4-0.1,2.4-0.2,3-0.2c0.4,0,0.7-0.1,1-0.2l1.6-0.1l0.4,0.3l18.3-2.1l3.5,5l31.7-2.7c3.2-0.2,5.6-0.3,7.3-0.5
	c5.3-0.6,7.9-2.9,7.9-6.8v-20.2l-0.7-1.4c-0.8-1.6-2.3-2.9-4-3.4C348.7,163.2,350.6,160.6,350.6,157.6z"/>
<linearGradient id="SVGID_1_" gradientUnits="userSpaceOnUse" x1="6.86" y1="108.1517" x2="358.7" y2="110.7517" gradientTransform="matrix(1 0 0 -1 0 202)">
	<stop  offset="0" style="stop-color:#11998E"/>
	<stop  offset="1" style="stop-color:#38EF7D"/>
</linearGradient>
<polygon class="st1" points="31.3,55.8 28.8,92 50.8,92 52.3,82.8 49,76 54,76 54,104.6 39.7,111.3 43.9,99.6 17,92 20.4,134.9 
	73.1,134.9 73.1,127.7 78.4,129.9 78.4,134.9 95.2,134.9 95.2,56.3 80.1,52.5 78.4,113 73.3,110.5 75,51.6 "/>
<linearGradient id="SVGID_2_" gradientUnits="userSpaceOnUse" x1="6.87" y1="107.1345" x2="358.6728" y2="109.7345" gradientTransform="matrix(1 0 0 -1 0 202)">
	<stop  offset="0" style="stop-color:#11998E"/>
	<stop  offset="1" style="stop-color:#38EF7D"/>
</linearGradient>
<path class="st2" d="M170.9,55.5l-26.1,29.1l2.2,23l20.5,11.1l2.6,16.2h21.1l3.7-82.8L170.9,55.5z M174.3,100.7l-8.5-3.4v-6.8
	l6.8-11.1l1.7-1.9L174.3,100.7z"/>
<linearGradient id="SVGID_3_" gradientUnits="userSpaceOnUse" x1="7.09" y1="77.0967" x2="358.93" y2="79.6967" gradientTransform="matrix(1 0 0 -1 0 202)">
	<stop  offset="0" style="stop-color:#11998E"/>
	<stop  offset="1" style="stop-color:#38EF7D"/>
</linearGradient>
<polygon class="st3" points="147,112.7 148.2,134.9 165.8,134.9 163.6,121.6 "/>
<linearGradient id="SVGID_4_" gradientUnits="userSpaceOnUse" x1="6.87" y1="107.7829" x2="358.7" y2="110.3829" gradientTransform="matrix(1 0 0 -1 0 202)">
	<stop  offset="0" style="stop-color:#11998E"/>
	<stop  offset="1" style="stop-color:#38EF7D"/>
</linearGradient>
<polygon class="st4" points="125.5,52.1 141.7,56.3 129.7,86.5 130.5,102.5 136.9,112.6 143.4,111.5 144.6,134.5 123,123.6 
	115.4,104.2 115.4,81.5 "/>
<linearGradient id="SVGID_5_" gradientUnits="userSpaceOnUse" x1="6.87" y1="107.5029" x2="358.7" y2="110.1029" gradientTransform="matrix(1 0 0 -1 0 202)">
	<stop  offset="0" style="stop-color:#11998E"/>
	<stop  offset="1" style="stop-color:#38EF7D"/>
</linearGradient>
<path class="st5" d="M244.9,89.5v16l21-6.7v-32l-22.7-5.4V55l-23.6-3.4l-24.4,33.6l-0.8,22.7l22.7,10.9l2.5,14.7l20.2,0.5l3-55.1
	l12.1,1.3l0.8,4.2l-5-2L244.9,89.5z M223.9,101.3l-9.3-4.4v-5.6l8.4-10.9l1.7-2.5L223.9,101.3z"/>
<linearGradient id="SVGID_6_" gradientUnits="userSpaceOnUse" x1="6.88" y1="106.5089" x2="358.71" y2="109.1089" gradientTransform="matrix(1 0 0 -1 0 202)">
	<stop  offset="0" style="stop-color:#11998E"/>
	<stop  offset="1" style="stop-color:#38EF7D"/>
</linearGradient>
<polygon class="st6" points="268.2,55.3 286.7,51.8 286.7,108.7 302.5,108.7 302.5,99.4 294.1,97.1 304.2,75.8 321.9,88.7 
	318.1,120.1 305.2,134.9 268.2,134.9 "/>
<linearGradient id="SVGID_7_" gradientUnits="userSpaceOnUse" x1="6.42" y1="168.4373" x2="358.25" y2="171.0273" gradientTransform="matrix(1 0 0 -1 0 202)">
	<stop  offset="0" style="stop-color:#11998E"/>
	<stop  offset="1" style="stop-color:#38EF7D"/>
</linearGradient>
<path class="st7" d="M268.2,51.5l17.5-2.5V29c0,0-36,11.7-60.9-16.9l-6.5,23.1c0,0,9.2,10,49.8,9.6V51.5z"/>
<linearGradient id="SVGID_8_" gradientUnits="userSpaceOnUse" x1="6.88" y1="106.6185" x2="358.71" y2="109.2185" gradientTransform="matrix(1 0 0 -1 0 202)">
	<stop  offset="0" style="stop-color:#11998E"/>
	<stop  offset="1" style="stop-color:#38EF7D"/>
</linearGradient>
<polygon class="st8" points="328.2,51.9 343.3,55.8 338.2,134.1 319.7,134.1 "/>
<linearGradient id="SVGID_9_" gradientUnits="userSpaceOnUse" x1="6.87" y1="107.9236" x2="358.7" y2="110.5236" gradientTransform="matrix(1 0 0 -1 0 202)">
	<stop  offset="0" style="stop-color:#11998E"/>
	<stop  offset="1" style="stop-color:#38EF7D"/>
</linearGradient>
<polygon class="st9" points="97.7,56.9 112.9,51.7 113.7,134.9 97.7,134.9 "/>
<path class="st10" d="M18.8,143.4l37.1,1.4l0.3,0.4v11.6c0,0.3-0.2,0.4-0.6,0.4c-3.8,0-11.2,0-22.2,0.1l-2.1,21.3
	c7.2-0.6,11-0.9,11.4-0.9v-1.9c0-1.3,0-3.5-0.1-6.6c0.2,0,0.3-0.1,0.3-0.3c3.2,0.1,5.6,0.1,7,0.1h5.9c0.1,0,0.3,0.1,0.4,0.4v18.7
	c0,0.4-3.1,0.7-9.3,1.1l-28.2,2.4l-0.3-0.4v-47.6C18.4,143.6,18.5,143.5,18.8,143.4z"/>
<path class="st10" d="M113.4,143.4l0.3,0.4v47.6c0,0.1-0.1,0.3-0.4,0.4c-6-0.3-9.1-0.6-9.1-0.8c0-0.9-0.3-3.9-0.8-9
	c-7-0.2-12.9-0.3-17.6-0.3v0.1l0.3,7.9l-0.4,0.3c-5.4-0.4-8.6-0.5-9.5-0.5l-0.3-0.4v-43.2c0-0.5,3.5-0.8,10.6-0.9
	C87.3,144.9,96.3,144.3,113.4,143.4z M88.3,154.2v19h13.8c-0.8-11.7-1.3-18-1.3-18.8l-0.3-0.1L88.3,154.2z"/>
<path class="st10" d="M171,142.8l0.1,0.3v48.4c0,0.2-0.1,0.3-0.4,0.3c-7.3-0.5-11-0.9-11-1.2v-20.4h-0.3l-7.7,9
	c-0.7-0.6-3.4-4-8.1-10.4h-0.4v20.1c0,0.1-0.1,0.3-0.2,0.3c0,0,0,0-0.1,0c-6.4-0.5-9.6-0.8-9.6-1.1v-42.8c0-0.4,2.1-0.7,6.4-0.7
	c1.4-0.2,2.8-0.3,4.2-0.3c0.4,0,2.1,2.6,5,7.8l3.8,5.8c0.2-0.3,1.6-5,4.2-14.2C157.8,143.4,162.5,143.2,171,142.8z"/>
<path class="st10" d="M228.8,145.1l0.3,0.4v10.3c0,0.4-3.3,0.9-10,1.3c-0.8,0-1.3,0.3-1.3,0.8c-0.1,0.8-0.4,8.5-0.8,23.2
	c4.1,0.1,7.2,0.1,9.3,0.1h2.4c0.1,0,0.3,0.1,0.4,0.4v9.8c0,0.1-0.1,0.3-0.4,0.4c-1,0-13.4-0.4-37.1-1.3l-0.3-0.4v-8.4
	c0-0.1,0.1-0.3,0.4-0.4h2.2c1.8,0,4.4,0,7.9-0.1l1.4-22.8c-5.7,0.2-9.4,0.3-11,0.3l-0.7,0.1l-0.3-0.4v-10.4c0-0.2,0.2-0.4,0.6-0.4
	C192.8,147.4,205.1,146.7,228.8,145.1z"/>
<path class="st10" d="M249.1,144.4h13.1c0.7,0,1.4,1,2.1,3L274,166h0.1v-0.3c0-0.9-0.5-7.9-1.5-21.1l0.4-0.3h13
	c0.1,0,0.3,0.1,0.4,0.4V188c0,0.4-2.4,0.7-7.2,0.9c-1.2,0.2-2.5,0.4-3.8,0.4c-0.8-0.6-3.8-4.1-8.8-10.7l-6-7.2l-0.1,0.3v18.6
	c0,0.4-2.8,0.8-8.5,1.1c0,0.2-1,0.3-2.9,0.3c0,0.1-0.1,0.1-0.1,0.1l-0.3-0.4v-46.5C248.6,144.7,248.8,144.5,249.1,144.4z"/>
<path class="st10" d="M307,143.4l37,1.4l0.3,0.4v11.6c0,0.3-0.2,0.4-0.6,0.4c-3.8,0-11.2,0-22.2,0.1l-2.1,21.3
	c7.2-0.6,11-0.9,11.4-0.9v-1.9c0-1.4,0-3.6-0.1-6.6c0.2,0,0.3-0.1,0.3-0.3c3.2,0.1,5.6,0.1,7,0.1h5.9c0.1,0,0.3,0.1,0.4,0.4v18.7
	c0,0.4-3.1,0.7-9.4,1.1l-28.2,2.4l-0.3-0.4v-47.6C306.5,143.6,306.7,143.5,307,143.4z"/>
<path class="st10" d="M18.8,143.4l37.1,1.4l0.3,0.4v11.6c0,0.3-0.2,0.4-0.6,0.4c-3.8,0-11.2,0-22.2,0.1l-2.1,21.3
	c7.2-0.6,11-0.9,11.4-0.9v-1.9c0-1.3,0-3.5-0.1-6.6c0.2,0,0.3-0.1,0.3-0.3c3.2,0.1,5.6,0.1,7,0.1h5.9c0.1,0,0.3,0.1,0.4,0.4v18.7
	c0,0.4-3.1,0.7-9.3,1.1l-28.2,2.4l-0.3-0.4v-47.6C18.4,143.6,18.5,143.5,18.8,143.4z"/>
<path class="st10" d="M113.4,143.4l0.3,0.4v47.6c0,0.1-0.1,0.3-0.4,0.4c-6-0.3-9.1-0.6-9.1-0.8c0-0.9-0.3-3.9-0.8-9
	c-7-0.2-12.9-0.3-17.6-0.3v0.1l0.3,7.9l-0.4,0.3c-5.4-0.4-8.6-0.5-9.5-0.5l-0.3-0.4v-43.2c0-0.5,3.5-0.8,10.6-0.9
	C87.3,144.9,96.3,144.3,113.4,143.4z M88.3,154.2v19h13.8c-0.8-11.7-1.3-18-1.3-18.8l-0.3-0.1L88.3,154.2z"/>
<path class="st10" d="M171,142.8l0.1,0.3v48.4c0,0.2-0.1,0.3-0.4,0.3c-7.3-0.5-11-0.9-11-1.2v-20.4h-0.3l-7.7,9
	c-0.7-0.6-3.4-4-8.1-10.4h-0.4v20.1c0,0.1-0.1,0.3-0.2,0.3c0,0,0,0-0.1,0c-6.4-0.5-9.6-0.8-9.6-1.1v-42.8c0-0.4,2.1-0.7,6.4-0.7
	c1.4-0.2,2.8-0.3,4.2-0.3c0.4,0,2.1,2.6,5,7.8l3.8,5.8c0.2-0.3,1.6-5,4.2-14.2C157.8,143.4,162.5,143.2,171,142.8z"/>
<path class="st10" d="M228.8,145.1l0.3,0.4v10.3c0,0.4-3.3,0.9-10,1.3c-0.8,0-1.3,0.3-1.3,0.8c-0.1,0.8-0.4,8.5-0.8,23.2
	c4.1,0.1,7.2,0.1,9.3,0.1h2.4c0.1,0,0.3,0.1,0.4,0.4v9.8c0,0.1-0.1,0.3-0.4,0.4c-1,0-13.4-0.4-37.1-1.3l-0.3-0.4v-8.4
	c0-0.1,0.1-0.3,0.4-0.4h2.2c1.8,0,4.4,0,7.9-0.1l1.4-22.8c-5.7,0.2-9.4,0.3-11,0.3l-0.7,0.1l-0.3-0.4v-10.4c0-0.2,0.2-0.4,0.6-0.4
	C192.8,147.4,205.1,146.7,228.8,145.1z"/>
<path class="st10" d="M249.1,144.4h13.1c0.7,0,1.4,1,2.1,3L274,166h0.1v-0.3c0-0.9-0.5-7.9-1.5-21.1l0.4-0.3h13
	c0.1,0,0.3,0.1,0.4,0.4V188c0,0.4-2.4,0.7-7.2,0.9c-1.2,0.2-2.5,0.4-3.8,0.4c-0.8-0.6-3.8-4.1-8.8-10.7l-6-7.2l-0.1,0.3v18.6
	c0,0.4-2.8,0.8-8.5,1.1c0,0.2-1,0.3-2.9,0.3c0,0.1-0.1,0.1-0.1,0.1l-0.3-0.4v-46.5C248.6,144.7,248.8,144.5,249.1,144.4z"/>
<path class="st10" d="M307,143.4l37,1.4l0.3,0.4v11.6c0,0.3-0.2,0.4-0.6,0.4c-3.8,0-11.2,0-22.2,0.1l-2.1,21.3
	c7.2-0.6,11-0.9,11.4-0.9v-1.9c0-1.4,0-3.6-0.1-6.6c0.2,0,0.3-0.1,0.3-0.3c3.2,0.1,5.6,0.1,7,0.1h5.9c0.1,0,0.3,0.1,0.4,0.4v18.7
	c0,0.4-3.1,0.7-9.4,1.1l-28.2,2.4l-0.3-0.4v-47.6C306.5,143.6,306.7,143.5,307,143.4z"/>
</svg>
