<?xml version="1.0" encoding="utf-8"?>
<!-- Generator: Adobe Illustrator 24.3.0, SVG Export Plug-In . SVG Version: 6.00 Build 0)  -->
<svg version="1.1" id="Layer_1" xmlns="http://www.w3.org/2000/svg" xmlns:xlink="http://www.w3.org/1999/xlink" x="0px" y="0px"
	 viewBox="0 0 155.5 49.2" style="enable-background:new 0 0 155.5 49.2;" xml:space="preserve">
<style type="text/css">
	.st0{fill:url(#SVGID_1_);}
	.st1{fill:url(#SVGID_2_);}
	.st2{fill:url(#SVGID_3_);}
	.st3{fill:url(#SVGID_4_);}
	.st4{fill:url(#SVGID_5_);}
	.st5{fill:url(#SVGID_6_);}
	.st6{fill:url(#SVGID_7_);}
	.st7{fill:url(#SVGID_8_);}
	.st8{fill:url(#SVGID_9_);}
	.st9{fill:#FFFFFF;}
	.st10{fill:url(#SVGID_10_);}
</style>
<linearGradient id="SVGID_1_" gradientUnits="userSpaceOnUse" x1="60.08" y1="31.0482" x2="150.28" y2="31.7082" gradientTransform="matrix(1 0 0 -1 0 52)">
	<stop  offset="0" style="stop-color:#11998E"/>
	<stop  offset="1" style="stop-color:#38EF7D"/>
</linearGradient>
<polygon class="st0" points="66.3,11.2 65.7,20.5 71.3,20.5 71.7,18.1 70.9,16.4 72.2,16.4 72.2,23.7 68.5,25.4 69.6,22.4 
	62.7,20.5 63.5,31.5 77.1,31.5 77.1,29.6 78.4,30.2 78.4,31.5 82.7,31.5 82.7,11.3 78.8,10.4 78.4,25.9 77.1,25.2 77.6,10.1 "/>
<linearGradient id="SVGID_2_" gradientUnits="userSpaceOnUse" x1="60.08" y1="30.7909" x2="150.27" y2="31.4509" gradientTransform="matrix(1 0 0 -1 0 52)">
	<stop  offset="0" style="stop-color:#11998E"/>
	<stop  offset="1" style="stop-color:#38EF7D"/>
</linearGradient>
<path class="st1" d="M102.1,11.1l-6.7,7.5l0.6,5.9l5.2,2.9l0.7,4.2h5.4l0.9-21.2L102.1,11.1z M103,22.7l-2.2-0.9v-1.8l1.8-2.8
	l0.4-0.5V22.7z"/>
<linearGradient id="SVGID_3_" gradientUnits="userSpaceOnUse" x1="60.14" y1="23.0807" x2="150.34" y2="23.7507" gradientTransform="matrix(1 0 0 -1 0 52)">
	<stop  offset="0" style="stop-color:#11998E"/>
	<stop  offset="1" style="stop-color:#38EF7D"/>
</linearGradient>
<polygon class="st2" points="96,25.8 96.3,31.5 100.8,31.5 100.3,28.1 "/>
<linearGradient id="SVGID_4_" gradientUnits="userSpaceOnUse" x1="60.08" y1="30.9509" x2="150.28" y2="31.6209" gradientTransform="matrix(1 0 0 -1 0 52)">
	<stop  offset="0" style="stop-color:#11998E"/>
	<stop  offset="1" style="stop-color:#38EF7D"/>
</linearGradient>
<polygon class="st3" points="90.5,10.2 94.7,11.3 91.6,19.1 91.8,23.2 93.4,25.8 95.1,25.5 95.4,31.4 89.8,28.6 87.9,23.6 
	87.9,17.8 "/>
<linearGradient id="SVGID_5_" gradientUnits="userSpaceOnUse" x1="60.08" y1="30.8803" x2="150.28" y2="31.5503" gradientTransform="matrix(1 0 0 -1 0 52)">
	<stop  offset="0" style="stop-color:#11998E"/>
	<stop  offset="1" style="stop-color:#38EF7D"/>
</linearGradient>
<path class="st4" d="M121.1,19.8v4.1l5.4-1.7V14l-5.8-1.4V11l-6-0.9l-6.3,8.6l-0.2,5.8l5.8,2.8l0.7,3.8l5.2,0.1l0.8-14.1l3.1,0.3
	l0.2,1.1l-1.3-0.5L121.1,19.8z M115.7,22.8l-2.4-1.1v-1.4l2.2-2.8l0.4-0.6L115.7,22.8z"/>
<linearGradient id="SVGID_6_" gradientUnits="userSpaceOnUse" x1="60.08" y1="30.6195" x2="150.28" y2="31.2895" gradientTransform="matrix(1 0 0 -1 0 52)">
	<stop  offset="0" style="stop-color:#11998E"/>
	<stop  offset="1" style="stop-color:#38EF7D"/>
</linearGradient>
<polygon class="st5" points="127.1,11.1 131.8,10.2 131.8,24.8 135.9,24.8 135.9,22.4 133.7,21.8 136.3,16.3 140.8,19.6 139.9,27.7 
	136.6,31.5 127.1,31.5 "/>
<linearGradient id="SVGID_7_" gradientUnits="userSpaceOnUse" x1="59.96" y1="46.4976" x2="150.17" y2="47.1676" gradientTransform="matrix(1 0 0 -1 0 52)">
	<stop  offset="0" style="stop-color:#11998E"/>
	<stop  offset="1" style="stop-color:#38EF7D"/>
</linearGradient>
<path class="st6" d="M127.1,10.1l4.5-0.6V4.3c0,0-9.2,3-15.6-4.3l-1.7,5.9c0,0,2.4,2.6,12.8,2.5L127.1,10.1z"/>
<linearGradient id="SVGID_8_" gradientUnits="userSpaceOnUse" x1="60.08" y1="30.6485" x2="150.28" y2="31.3185" gradientTransform="matrix(1 0 0 -1 0 52)">
	<stop  offset="0" style="stop-color:#11998E"/>
	<stop  offset="1" style="stop-color:#38EF7D"/>
</linearGradient>
<polygon class="st7" points="142.4,10.2 146.3,11.2 145,31.3 140.3,31.3 "/>
<linearGradient id="SVGID_9_" gradientUnits="userSpaceOnUse" x1="60.08" y1="30.9904" x2="150.28" y2="31.6504" gradientTransform="matrix(1 0 0 -1 0 52)">
	<stop  offset="0" style="stop-color:#11998E"/>
	<stop  offset="1" style="stop-color:#38EF7D"/>
</linearGradient>
<polygon class="st8" points="83.4,11.5 87.2,10.1 87.5,31.5 83.4,31.5 "/>
<path class="st9" d="M63.1,33.7l9.5,0.4l0.1,0.1v3c0,0.1,0,0.1-0.1,0.1c-1,0-2.9,0-5.7,0l-0.5,5.5l2.9-0.2V42c0-0.3,0-0.9,0-1.7
	c0,0,0.1,0,0.1-0.1c0.8,0,1.4,0,1.8,0h1.5c0,0,0.1,0,0.1,0.1v4.8c-0.8,0.2-1.6,0.3-2.4,0.3L63.1,46L63,45.9V33.8
	C63,33.8,63.1,33.7,63.1,33.7z"/>
<path class="st9" d="M87.4,33.7L87.4,33.7l0.1,12.3c0,0,0,0.1-0.1,0.1c-0.8,0-1.6-0.1-2.3-0.2c0-0.2-0.1-1-0.2-2.3
	c-1.8,0-3.3-0.1-4.5-0.1l0,0l0.1,2l-0.1,0.1c-1.4-0.1-2.2-0.1-2.4-0.1l-0.1-0.1v-11c0-0.1,0.9-0.2,2.7-0.2L87.4,33.7z M81,36.4v4.9
	h3.5c-0.2-3-0.3-4.6-0.3-4.8h-0.1L81,36.4z"/>
<path class="st9" d="M102.2,33.5L102.2,33.5V46c0,0,0,0.1-0.1,0.1c-0.9,0-1.9-0.1-2.8-0.3v-5.3h0l-2,2.3c-0.7-0.8-1.4-1.7-2.1-2.7
	H95v5.2c0,0,0,0.1-0.1,0.1c0,0,0,0,0,0c-0.8,0-1.7-0.1-2.5-0.3v-11c0-0.1,0.6-0.2,1.6-0.2c0.4-0.1,0.7-0.1,1.1-0.1
	c0.5,0.6,1,1.3,1.3,2l1,1.5c0-0.1,0.4-1.3,1.1-3.7C98.8,33.7,100,33.6,102.2,33.5z"/>
<path class="st9" d="M117,34.1L117,34.1l0.1,2.7c-0.8,0.3-1.7,0.4-2.6,0.3c-0.2,0-0.3,0.1-0.3,0.2s-0.1,2.2-0.2,6h2.4h0.6
	c0,0,0.1,0,0.1,0.1V46c0,0,0,0.1-0.1,0.1c-0.3,0-3.4-0.1-9.5-0.3l-0.1-0.1v-2.2c0,0,0-0.1,0.1-0.1h0.5h2l0.3-5.8
	c-1.5,0-2.4,0.1-2.8,0.1h-0.2l-0.1-0.1v-2.7c0-0.1,0-0.1,0.1-0.1C107.8,34.7,110.9,34.5,117,34.1z"/>
<path class="st9" d="M122.2,33.9h3.4c0.2,0,0.3,0.3,0.5,0.8l2.5,4.8l0,0v-0.1c0-0.2-0.1-2-0.4-5.4l0.1-0.1h3.3c0,0,0.1,0,0.1,0.1
	v11.1c0,0.1-0.6,0.2-1.9,0.2c-0.3,0.1-0.7,0.1-1,0.1c-0.8-0.9-1.6-1.8-2.2-2.7l-1.5-1.9v0.1v4.8c0,0.1-0.7,0.2-2.2,0.3
	c0,0-0.2,0.1-0.8,0.1l0,0l-0.1-0.1V34C122.1,34,122.1,34,122.2,33.9z"/>
<path class="st9" d="M137,33.7l9.5,0.4l0.1,0.1v3c0,0.1,0,0.1-0.1,0.1c-1,0-2.9,0-5.7,0l-0.5,5.5l2.9-0.2V42c0-0.3,0-0.9,0-1.7
	c0,0,0.1,0,0.1,0c0,0,0,0,0,0c0.8,0,1.4,0,1.8,0h1.5c0,0,0.1,0,0.1,0.1v4.8c-0.8,0.2-1.6,0.3-2.4,0.3L137,46l-0.1-0.1L137,33.7
	C136.9,33.8,136.9,33.7,137,33.7z"/>
<path class="st9" d="M63.1,33.7l9.5,0.4l0.1,0.1v3c0,0.1,0,0.1-0.1,0.1c-1,0-2.9,0-5.7,0l-0.5,5.5l2.9-0.2V42c0-0.3,0-0.9,0-1.7
	c0,0,0.1,0,0.1-0.1c0.8,0,1.4,0,1.8,0h1.5c0,0,0.1,0,0.1,0.1v4.8c-0.8,0.2-1.6,0.3-2.4,0.3L63.1,46L63,45.9V33.8
	C63,33.8,63.1,33.7,63.1,33.7z"/>
<path class="st9" d="M87.4,33.7L87.4,33.7l0.1,12.3c0,0,0,0.1-0.1,0.1c-0.8,0-1.6-0.1-2.3-0.2c0-0.2-0.1-1-0.2-2.3
	c-1.8,0-3.3-0.1-4.5-0.1l0,0l0.1,2l-0.1,0.1c-1.4-0.1-2.2-0.1-2.4-0.1l-0.1-0.1v-11c0-0.1,0.9-0.2,2.7-0.2L87.4,33.7z M81,36.4v4.9
	h3.5c-0.2-3-0.3-4.6-0.3-4.8h-0.1L81,36.4z"/>
<path class="st9" d="M102.2,33.5L102.2,33.5V46c0,0,0,0.1-0.1,0.1c-0.9,0-1.9-0.1-2.8-0.3v-5.3h0l-2,2.3c-0.7-0.8-1.4-1.7-2.1-2.7
	H95v5.2c0,0,0,0.1-0.1,0.1c0,0,0,0,0,0c-0.8,0-1.7-0.1-2.5-0.3v-11c0-0.1,0.6-0.2,1.6-0.2c0.4-0.1,0.7-0.1,1.1-0.1
	c0.5,0.6,1,1.3,1.3,2l1,1.5c0-0.1,0.4-1.3,1.1-3.7C98.8,33.7,100,33.6,102.2,33.5z"/>
<path class="st9" d="M117,34.1L117,34.1l0.1,2.7c-0.8,0.3-1.7,0.4-2.6,0.3c-0.2,0-0.3,0.1-0.3,0.2s-0.1,2.2-0.2,6h2.4h0.6
	c0,0,0.1,0,0.1,0.1V46c0,0,0,0.1-0.1,0.1c-0.3,0-3.4-0.1-9.5-0.3l-0.1-0.1v-2.2c0,0,0-0.1,0.1-0.1h0.5h2l0.3-5.8
	c-1.5,0-2.4,0.1-2.8,0.1h-0.2l-0.1-0.1v-2.7c0-0.1,0-0.1,0.1-0.1C107.8,34.7,110.9,34.5,117,34.1z"/>
<path class="st9" d="M122.2,33.9h3.4c0.2,0,0.3,0.3,0.5,0.8l2.5,4.8l0,0v-0.1c0-0.2-0.1-2-0.4-5.4l0.1-0.1h3.3c0,0,0.1,0,0.1,0.1
	v11.1c0,0.1-0.6,0.2-1.9,0.2c-0.3,0.1-0.7,0.1-1,0.1c-0.8-0.9-1.6-1.8-2.2-2.7l-1.5-1.9v0.1v4.8c0,0.1-0.7,0.2-2.2,0.3
	c0,0-0.2,0.1-0.8,0.1l0,0l-0.1-0.1V34C122.1,34,122.1,34,122.2,33.9z"/>
<path class="st9" d="M137,33.7l9.5,0.4l0.1,0.1v3c0,0.1,0,0.1-0.1,0.1c-1,0-2.9,0-5.7,0l-0.5,5.5l2.9-0.2V42c0-0.3,0-0.9,0-1.7
	c0,0,0.1,0,0.1,0c0,0,0,0,0,0c0.8,0,1.4,0,1.8,0h1.5c0,0,0.1,0,0.1,0.1v4.8c-0.8,0.2-1.6,0.3-2.4,0.3L137,46l-0.1-0.1L137,33.7
	C136.9,33.8,136.9,33.7,137,33.7z"/>
<g>
	<polygon class="st9" points="34.3,32.4 15.1,17.8 10.9,34.7 22.3,26.5 9.2,39 8.1,37.5 13.6,16.4 16,14.2 	"/>
	<linearGradient id="SVGID_10_" gradientUnits="userSpaceOnUse" x1="26.5638" y1="23.8571" x2="54.2857" y2="23.8571">
		<stop  offset="0" style="stop-color:#11998E"/>
		<stop  offset="1" style="stop-color:#38EF7D"/>
	</linearGradient>
	<polygon class="st10" points="49.3,20.2 49.4,7.5 30.3,23.9 49,37.7 49.1,28.1 39.4,23.1 54,23.9 54.3,41.6 50.7,45.4 28.1,24.9 
		26.6,23.4 51.1,2.3 53.6,3.6 53.9,20.3 	"/>
</g>
</svg>
